# xmcd
#
# Track frame offsets: 
#        150
#        21074
#        36460
#        51272
#        64037
#        78575
#        89212
#        107922
#        114941
#        131642
#        146778
#        168123
#
# Disc length: 2358 seconds
#
# Revision: 0
# Processed by: cddbd v1.5.2PL0 Copyright (c) Steve Scherf et al.
# Submitted via: ExactAudioCopyFreeDBPlugin 1.0
#
DISCID=aa09340c
DTITLE=Ray Charles - Ray Charles:  Eighteen Classic Albums [Real Gone 
DTITLE=Jazz]
DYEAR=2017
DGENRE=Rhythm and Blues
TTITLE0=Ev'ry Time We Say Goodbye
TTITLE1=You and I
TTITLE2=Intro:  Goodbye - We'll Be Together Again
TTITLE3=People Will Say We're in Love
TTITLE4=Cocktails for Two
TTITLE5=Side By Side
TTITLE6=Baby It's Cold Outside
TTITLE7=Together
TTITLE8=For All We Know
TTITLE9=Takes Two to Tango
TTITLE10=Alone Together
TTITLE11=Just You, Just Me
EXTD=
EXTT0=
EXTT1=
EXTT2=
EXTT3=
EXTT4=
EXTT5=
EXTT6=
EXTT7=
EXTT8=
EXTT9=
EXTT10=
EXTT11=
PLAYORDER=
